<?xml version="1.0" encoding="UTF-8" standalone="no"?> <svg height="512" viewBox="0 0 256 256" width="512" xmlns="http://www.w3.org/2000/svg"><g id="Layer_80"><g><g><g><path d="m220.345 36.238h-184.69c-7.65 0-13.852 6.202-13.852 13.852v145.872h212.395v-145.872c-.001-7.651-6.202-13.852-13.853-13.852z" fill="#5290db"/></g></g><g><g><path d="m220.281 46.729h-184.562c-1.892 0-3.426 1.534-3.426 3.426v145.807h191.413v-145.807c.001-1.892-1.533-3.426-3.425-3.426z" fill="#818182"/></g></g><g><g><path d="m220.281 46.729h-184.562c-1.892 0-3.426 1.534-3.426 3.426v10.736h191.413v-10.736c.001-1.892-1.533-3.426-3.425-3.426z" fill="#dae6f1"/></g></g><g><g><path d="m35.719 46.729c-1.892 0-3.426 1.534-3.426 3.426v10.736h20.457v-14.162z" fill="#fc657e"/></g></g><g><g><path d="m220.346 33.738h-184.692c-9.017 0-16.352 7.335-16.352 16.352v144.785c0 1.381 1.119 2.5 2.5 2.5s2.5-1.119 2.5-2.5v-144.785c0-6.26 5.093-11.352 11.352-11.352h184.691c6.259 0 11.352 5.092 11.352 11.352v144.827c0 1.381 1.119 2.5 2.5 2.5s2.5-1.119 2.5-2.5v-144.827c0-9.017-7.335-16.352-16.351-16.352z"/></g></g><g><g><path d="m220.28 44.229h-184.56c-3.268 0-5.927 2.658-5.927 5.926v144.763c0 1.381 1.119 2.5 2.5 2.5s2.5-1.119 2.5-2.5v-144.764c0-.511.416-.926.927-.926h184.56c.511 0 .927.415.927.926v144.763c0 1.381 1.119 2.5 2.5 2.5s2.5-1.119 2.5-2.5v-144.763c0-3.267-2.659-5.925-5.927-5.925z"/></g></g><g><g><path d="m52.75 45.215c-1.381 0-2.5 1.119-2.5 2.5v12.237c0 1.381 1.119 2.5 2.5 2.5s2.5-1.119 2.5-2.5v-12.237c0-1.381-1.119-2.5-2.5-2.5z"/></g></g><g><g><path d="m223 58.391h-189c-1.381 0-2.5 1.119-2.5 2.5s1.119 2.5 2.5 2.5h189c1.381 0 2.5-1.119 2.5-2.5s-1.119-2.5-2.5-2.5z"/></g></g><g><g><path d="m156.85 11.45c-4.5-.8-8-4.3-8.9-8.7 0-.2-.4-.2-.4 0-.9 4.4-4.4 7.9-8.9 8.7-.2 0-.2.3 0 .4 4.5.8 8 4.3 8.9 8.7 0 .2.4.2.4 0 .9-4.4 4.4-7.9 8.9-8.7.2-.1.2-.4 0-.4z" fill="#f5c84c"/></g></g><g><g><path d="m173.8 18.6c-1.878 0-3.4 1.522-3.4 3.4s1.522 3.4 3.4 3.4 3.4-1.522 3.4-3.4-1.522-3.4-3.4-3.4z" fill="#87d147"/></g></g><g><g><circle cx="128" cy="128" fill="#70d6f9" r="48.125"/></g></g><g><g><path d="m136.48 106.525c-2.55-1.062-5.476.144-6.538 2.692l-14.047 33.719c-1.063 2.549.144 5.477 2.692 6.538 2.554 1.063 5.479-.147 6.538-2.692l14.047-33.719c1.063-2.548-.143-5.476-2.692-6.538z" fill="#edf4fc"/></g></g><g><g><path d="m161.87 124.571-12.527-13.293c-1.893-2.009-5.058-2.104-7.067-.21s-2.104 5.059-.21 7.067l9.296 9.864-9.296 9.864c-1.894 2.009-1.8 5.174.21 7.067 2.01 1.896 5.175 1.798 7.067-.21l12.527-13.293c1.815-1.924 1.815-4.93 0-6.856z" fill="#edf4fc"/></g></g><g><g><path d="m104.639 128 9.296-9.864c1.894-2.009 1.8-5.174-.21-7.067-2.007-1.894-5.173-1.801-7.067.21l-12.528 13.292c-1.815 1.926-1.815 4.932 0 6.857l12.527 13.293c1.894 2.01 5.059 2.104 7.067.21 2.01-1.894 2.104-5.059.21-7.067z" fill="#edf4fc"/></g></g><g><g><path d="m247.968 195.962h-239.936c-3.055 0-5.532 2.477-5.532 5.532 0 10.752 8.716 19.468 19.468 19.468h212.063c10.752 0 19.468-8.716 19.468-19.468.001-3.056-2.476-5.532-5.531-5.532z" fill="#edf4fc"/></g></g><g><g><path d="m83.931 195.962v5.975c0 3.174 2.573 5.748 5.748 5.748h76.641c3.175 0 5.748-2.574 5.748-5.748v-5.975z" fill="#c7d7e5"/></g></g><g><g><g><path d="m247.969 193.462h-239.938c-4.429 0-8.031 3.604-8.031 8.032 0 12.113 9.855 21.968 21.969 21.968h212.063c12.113 0 21.969-9.854 21.969-21.968-.001-4.429-3.604-8.032-8.032-8.032zm-13.938 25h-212.062c-9.357 0-16.969-7.611-16.969-16.968 0-1.672 1.359-3.032 3.031-3.032h239.938c1.672 0 3.031 1.36 3.031 3.032 0 9.357-7.612 16.968-16.969 16.968z"/></g></g></g><g><g><path d="m172.068 194.438c-1.381 0-2.5 1.119-2.5 2.5v4.999c0 1.791-1.457 3.248-3.248 3.248h-76.64c-1.791 0-3.248-1.457-3.248-3.248v-4.873c0-1.381-1.119-2.5-2.5-2.5s-2.5 1.119-2.5 2.5v4.873c0 4.548 3.7 8.248 8.248 8.248h76.641c4.548 0 8.248-3.7 8.248-8.248v-4.999c-.001-1.381-1.12-2.5-2.501-2.5z"/></g></g><g><g><path d="m12.875 93.81c-3.157-.561-5.613-3.017-6.245-6.104 0-.14-.281-.14-.281 0-.632 3.087-3.087 5.543-6.245 6.104-.14 0-.14.21 0 .281 3.157.562 5.613 3.017 6.245 6.104 0 .14.281.14.281 0 .631-3.087 3.087-5.543 6.245-6.104.141-.071.141-.281 0-.281z" fill="#70d6f9"/></g></g><g><g><path d="m72.7 235.7h-2.3v-2.3c0-1.7-1.4-3.2-3.2-3.2s-3.2 1.4-3.2 3.2v2.3h-2.3c-1.7 0-3.2 1.4-3.2 3.2s1.4 3.2 3.2 3.2h2.3v2.3c0 1.7 1.4 3.2 3.2 3.2s3.2-1.4 3.2-3.2v-2.3h2.3c1.7 0 3.2-1.4 3.2-3.2s-1.4-3.2-3.2-3.2z" fill="#fc657e"/></g></g><g><g><path d="m95.8 246.6c-1.878 0-3.4 1.522-3.4 3.4s1.522 3.4 3.4 3.4 3.4-1.522 3.4-3.4-1.522-3.4-3.4-3.4z" fill="#f5c84c"/></g></g><g><g><path d="m245.8 168.6c-1.878 0-3.4 1.522-3.4 3.4s1.522 3.4 3.4 3.4 3.4-1.522 3.4-3.4-1.522-3.4-3.4-3.4z" fill="#70d6f9"/></g></g><g><g><g><g><path d="m141.492 108.285c-.763-1.853-2.201-3.298-4.051-4.068-3.818-1.589-8.218.223-9.808 4.04l-14.047 33.718c-.771 1.85-.774 3.889-.012 5.741.764 1.853 2.202 3.297 4.052 4.066.93.388 1.906.581 2.884.581.969 0 1.938-.19 2.859-.57 1.851-.764 3.294-2.202 4.063-4.05l14.047-33.718c.771-1.849.776-3.887.013-5.74zm-4.628 3.818-14.047 33.719c-.257.615-.737 1.095-1.354 1.35-.614.253-1.294.253-1.914-.004-.616-.257-1.096-.738-1.351-1.356-.254-.617-.253-1.296.004-1.913l14.047-33.718c.529-1.271 1.994-1.876 3.271-1.347.616.257 1.095.738 1.349 1.355s.252 1.296-.005 1.914z"/></g></g></g></g><g><g><g><g><path d="m163.688 122.856-12.527-13.292c-1.373-1.458-3.232-2.294-5.234-2.354-1.987-.034-3.908.665-5.366 2.038-3.01 2.836-3.151 7.592-.315 10.602l7.681 8.149-7.681 8.15c-2.836 3.009-2.694 7.765.315 10.601 1.401 1.322 3.218 2.042 5.137 2.042.075 0 .151-.001.227-.003 2.004-.06 3.864-.896 5.237-2.354l12.526-13.292c2.72-2.883 2.72-7.403 0-10.287zm-3.638 6.858-12.528 13.294c-.457.486-1.077.765-1.745.784-.66.039-1.301-.221-1.785-.679-.001 0-.001-.001-.001-.001-1.004-.945-1.051-2.53-.106-3.533l9.297-9.864c.907-.963.907-2.467 0-3.43l-9.297-9.863c-.944-1.004-.897-2.589.106-3.534.467-.44 1.072-.68 1.712-.68.025 0 .051 0 .076.001.667.02 1.286.298 1.744.784l12.528 13.294c.906.96.906 2.466-.001 3.427z"/></g></g></g></g><g><g><g><g><path d="m108.074 128 7.681-8.15c2.836-3.009 2.694-7.765-.314-10.6-1.456-1.374-3.4-2.076-5.364-2.04-2.004.06-3.863.896-5.237 2.354l-12.526 13.292c-2.721 2.885-2.721 7.404-.001 10.288l12.526 13.292c1.374 1.459 3.234 2.295 5.237 2.354.076.002.152.003.228.003 1.919 0 3.736-.721 5.137-2.042 3.01-2.836 3.151-7.592.315-10.602zm3.935 15.113c-.483.458-1.134.713-1.785.679-.668-.02-1.288-.298-1.745-.784-.001 0-.001-.001-.001-.001l-12.528-13.294c-.906-.96-.906-2.466.001-3.427l12.527-13.293c.458-.486 1.078-.766 1.746-.785.025-.001.051-.001.076-.001.639 0 1.243.239 1.71.681 1.004.945 1.051 2.53.106 3.533l-9.297 9.864c-.907.963-.907 2.467 0 3.43l9.297 9.863c.945 1.004.898 2.589-.107 3.535z"/></g></g></g></g><g><g><g><path d="m128 77.375c-27.915 0-50.625 22.71-50.625 50.625s22.71 50.625 50.625 50.625 50.625-22.71 50.625-50.625-22.71-50.625-50.625-50.625zm0 96.25c-25.157 0-45.625-20.468-45.625-45.625s20.468-45.625 45.625-45.625 45.625 20.468 45.625 45.625-20.468 45.625-45.625 45.625z"/></g></g></g><g><g><path d="m207 76.5h-5.167c-1.381 0-2.5 1.119-2.5 2.5s1.119 2.5 2.5 2.5h5.167c1.381 0 2.5-1.119 2.5-2.5s-1.119-2.5-2.5-2.5z"/></g></g><g><g><path d="m193.822 76.5h-34.587c-1.381 0-2.5 1.119-2.5 2.5s1.119 2.5 2.5 2.5h34.587c1.381 0 2.5-1.119 2.5-2.5s-1.119-2.5-2.5-2.5z"/></g></g><g><g><path d="m96.766 76.5h-24.891c-1.381 0-2.5 1.119-2.5 2.5s1.119 2.5 2.5 2.5h24.891c1.381 0 2.5-1.119 2.5-2.5s-1.12-2.5-2.5-2.5z"/></g></g><g><g><path d="m62.178 76.5h-13.178c-1.381 0-2.5 1.119-2.5 2.5s1.119 2.5 2.5 2.5h13.178c1.381 0 2.5-1.119 2.5-2.5s-1.119-2.5-2.5-2.5z"/></g></g><g><g><path d="m207 88.688h-11.178c-1.381 0-2.5 1.119-2.5 2.5s1.119 2.5 2.5 2.5h11.178c1.381 0 2.5-1.119 2.5-2.5s-1.119-2.5-2.5-2.5z"/></g></g><g><g><path d="m187.667 88.688h-14.72c-1.381 0-2.5 1.119-2.5 2.5s1.119 2.5 2.5 2.5h14.72c1.381 0 2.5-1.119 2.5-2.5s-1.119-2.5-2.5-2.5z"/></g></g><g><g><path d="m83.053 88.688h-20.945c-1.381 0-2.5 1.119-2.5 2.5s1.119 2.5 2.5 2.5h20.944c1.381 0 2.5-1.119 2.5-2.5s-1.118-2.5-2.499-2.5z"/></g></g><g><g><path d="m53.125 88.688h-4.125c-1.381 0-2.5 1.119-2.5 2.5s1.119 2.5 2.5 2.5h4.125c1.381 0 2.5-1.119 2.5-2.5s-1.119-2.5-2.5-2.5z"/></g></g><g><g><path d="m207 100.875h-26.356c-1.381 0-2.5 1.119-2.5 2.5s1.119 2.5 2.5 2.5h26.356c1.381 0 2.5-1.119 2.5-2.5s-1.119-2.5-2.5-2.5z"/></g></g><g><g><path d="m75.356 100.875h-26.356c-1.381 0-2.5 1.119-2.5 2.5s1.119 2.5 2.5 2.5h26.356c1.381 0 2.5-1.119 2.5-2.5s-1.119-2.5-2.5-2.5z"/></g></g><g><g><path d="m207 113.063h-22.219c-1.381 0-2.5 1.119-2.5 2.5s1.119 2.5 2.5 2.5h22.219c1.381 0 2.5-1.119 2.5-2.5s-1.119-2.5-2.5-2.5z"/></g></g><g><g><path d="m71.216 113.063h-4.341c-1.381 0-2.5 1.119-2.5 2.5s1.119 2.5 2.5 2.5h4.341c1.381 0 2.5-1.119 2.5-2.5s-1.119-2.5-2.5-2.5z"/></g></g><g><g><path d="m58.5 113.063h-9.5c-1.381 0-2.5 1.119-2.5 2.5s1.119 2.5 2.5 2.5h9.5c1.381 0 2.5-1.119 2.5-2.5s-1.119-2.5-2.5-2.5z"/></g></g><g><g><path d="m207 125.25h-4.375c-1.381 0-2.5 1.119-2.5 2.5s1.119 2.5 2.5 2.5h4.375c1.381 0 2.5-1.119 2.5-2.5s-1.119-2.5-2.5-2.5z"/></g></g><g><g><path d="m194.125 125.25h-8c-1.381 0-2.5 1.119-2.5 2.5s1.119 2.5 2.5 2.5h8c1.381 0 2.5-1.119 2.5-2.5s-1.119-2.5-2.5-2.5z"/></g></g><g><g><path d="m69.875 125.25h-20.875c-1.381 0-2.5 1.119-2.5 2.5s1.119 2.5 2.5 2.5h20.875c1.381 0 2.5-1.119 2.5-2.5s-1.119-2.5-2.5-2.5z"/></g></g><g><g><path d="m207 137.438h-22.108c-1.381 0-2.5 1.119-2.5 2.5s1.119 2.5 2.5 2.5h22.108c1.381 0 2.5-1.119 2.5-2.5s-1.119-2.5-2.5-2.5z"/></g></g><g><g><path d="m71.217 137.438h-22.217c-1.381 0-2.5 1.119-2.5 2.5s1.119 2.5 2.5 2.5h22.217c1.381 0 2.5-1.119 2.5-2.5s-1.119-2.5-2.5-2.5z"/></g></g><g><g><path d="m207 149.625h-7.875c-1.381 0-2.5 1.119-2.5 2.5s1.119 2.5 2.5 2.5h7.875c1.381 0 2.5-1.119 2.5-2.5s-1.119-2.5-2.5-2.5z"/></g></g><g><g><path d="m190.175 149.625h-9.297c-1.381 0-2.5 1.119-2.5 2.5s1.119 2.5 2.5 2.5h9.297c1.381 0 2.5-1.119 2.5-2.5s-1.119-2.5-2.5-2.5z"/></g></g><g><g><path d="m75.122 149.625h-12.455c-1.381 0-2.5 1.119-2.5 2.5s1.119 2.5 2.5 2.5h12.455c1.381 0 2.5-1.119 2.5-2.5s-1.119-2.5-2.5-2.5z"/></g></g><g><g><path d="m54 149.625h-5c-1.381 0-2.5 1.119-2.5 2.5s1.119 2.5 2.5 2.5h5c1.381 0 2.5-1.119 2.5-2.5s-1.119-2.5-2.5-2.5z"/></g></g><g><g><path d="m207 161.813h-17.75c-1.381 0-2.5 1.119-2.5 2.5s1.119 2.5 2.5 2.5h17.75c1.381 0 2.5-1.119 2.5-2.5s-1.119-2.5-2.5-2.5z"/></g></g><g><g><path d="m180.878 161.813h-7.527c-1.381 0-2.5 1.119-2.5 2.5s1.119 2.5 2.5 2.5h7.527c1.381 0 2.5-1.119 2.5-2.5s-1.119-2.5-2.5-2.5z"/></g></g><g><g><path d="m82.649 161.813h-33.649c-1.381 0-2.5 1.119-2.5 2.5s1.119 2.5 2.5 2.5h33.649c1.381 0 2.5-1.119 2.5-2.5s-1.119-2.5-2.5-2.5z"/></g></g><g><g><path d="m207 174h-13.375c-1.381 0-2.5 1.119-2.5 2.5s1.119 2.5 2.5 2.5h13.375c1.381 0 2.5-1.119 2.5-2.5s-1.119-2.5-2.5-2.5z"/></g></g><g><g><path d="m184.781 174h-24.782c-1.381 0-2.5 1.119-2.5 2.5s1.119 2.5 2.5 2.5h24.782c1.381 0 2.5-1.119 2.5-2.5s-1.119-2.5-2.5-2.5z"/></g></g><g><g><path d="m96.001 174h-10.001c-1.381 0-2.5 1.119-2.5 2.5s1.119 2.5 2.5 2.5h10.001c1.381 0 2.5-1.119 2.5-2.5s-1.119-2.5-2.5-2.5z"/></g></g><g><g><path d="m76.375 174h-27.375c-1.381 0-2.5 1.119-2.5 2.5s1.119 2.5 2.5 2.5h27.375c1.381 0 2.5-1.119 2.5-2.5s-1.119-2.5-2.5-2.5z"/></g></g></g></g></svg>