<?xml version="1.0" encoding="utf-8"?>
<!-- Generator: Adobe Illustrator 18.0.0, SVG Export Plug-In . SVG Version: 6.00 Build 0)  -->
<!DOCTYPE svg PUBLIC "-//W3C//DTD SVG 1.1//EN" "http://www.w3.org/Graphics/SVG/1.1/DTD/svg11.dtd">
<svg version="1.1" id="Layer_1" xmlns="http://www.w3.org/2000/svg" xmlns:xlink="http://www.w3.org/1999/xlink" x="0px" y="0px"
	 viewBox="0 0 44.9 33.5" enable-background="new 0 0 44.9 33.5" xml:space="preserve">
<g>
	<path fill="#616E7D" d="M3.2,0.9C2.5,0.9,2,1.4,2,2v24.7c0,0.6,0.5,1.1,1.1,1.1h38.1c0.6,0,1.1-0.5,1.1-1.1V2
		c0-0.6-0.5-1.1-1.1-1.1H3.2z M39.9,23.7H4.6V3.3h35.3V23.7z"/>
	<path fill="#616E7D" d="M27.5,28.3H17c-0.1,0-0.1,0.1-0.2,0.2L15.4,31c-0.3,0.5-0.3,1.7,0,1.7h13.7c0.3,0,0.3-1.1,0-1.7l-1.4-2.5
		C27.6,28.4,27.5,28.3,27.5,28.3z"/>
	<path fill="#FFFFFF" d="M4.6,23.7h35.3V3.3H4.6V23.7z M22,17h-7.7v-0.9H22V17z M30.8,21.9h-8.3v-0.7h8.3V21.9z M38.4,20.7H22.5
		v-0.7h15.9V20.7z M38.4,19.6H22.5v-0.7h15.9V19.6z M38.4,18.4H22.5v-0.7h15.9V18.4z M22.5,17v-0.9h7.7V17H22.5z M38.4,17h-7.7v-0.9
		h7.7V17z M6.1,4.9h32.3v10.4H6.1V4.9z M6.1,16.1h7.7V17H6.1V16.1z M6.1,17.8H22v4.5H6.1V17.8z"/>
	<rect x="6.1" y="4.9" fill="#AAD3C7" width="32.3" height="10.4"/>
	<rect x="6.1" y="16.1" fill="#82BFAB" width="7.7" height="0.9"/>
	<rect x="6.1" y="17.8" fill="#82BFAB" width="15.9" height="4.5"/>
	<rect x="14.3" y="16.1" fill="#82BFAB" width="7.7" height="0.9"/>
	<rect x="22.5" y="16.1" fill="#82BFAB" width="7.7" height="0.9"/>
	<rect x="22.5" y="17.7" fill="#AAD3C7" width="15.9" height="0.7"/>
	<rect x="22.5" y="18.9" fill="#AAD3C7" width="15.9" height="0.7"/>
	<rect x="22.5" y="20.1" fill="#AAD3C7" width="15.9" height="0.7"/>
	<rect x="22.5" y="21.2" fill="#AAD3C7" width="8.3" height="0.7"/>
	<rect x="30.7" y="16.1" fill="#82BFAB" width="7.7" height="0.9"/>
</g>
</svg>
